<svg id="icon-add" viewBox="0 0 10 11" xmlns="http://www.w3.org/2000/svg">
<path fill-rule="evenodd" clip-rule="evenodd" d="M6.1667 1.27817C6.1667 0.725883 5.71899 0.278168 5.1667 0.278168C4.61442 0.278168 4.1667 0.725883 4.1667 1.27817V4.11151H1C0.447715 4.11151 0 4.55922 0 5.11151C0 5.66379 0.447715 6.11151 1 6.11151H4.1667L4.1667 9.27817C4.1667 9.83045 4.61442 10.2782 5.1667 10.2782C5.71899 10.2782 6.1667 9.83045 6.1667 9.27817L6.1667 6.11151L9 6.11151C9.55229 6.11151 10 5.66379 10 5.11151C10 4.55922 9.55229 4.11151 9 4.11151H6.1667V1.27817Z"/>
</svg>
