<svg id="icon-close" viewBox="0 0 10 10" xmlns="http://www.w3.org/2000/svg">
<path d="M8.72634 2.36225C9.11687 1.97173 9.11687 1.33856 8.72634 0.948037C8.33582 0.557513 7.70265 0.557513 7.31213 0.948037L4.89618 3.36399L2.36238 0.830186C1.97186 0.439661 1.33869 0.439661 0.948167 0.830186C0.557642 1.22071 0.557642 1.85387 0.948167 2.2444L3.48197 4.7782L0.948167 7.312C0.557642 7.70252 0.557642 8.33569 0.948167 8.72621C1.33869 9.11674 1.97186 9.11674 2.36238 8.72621L4.89618 6.19241L7.31213 8.60836C7.70265 8.99888 8.33582 8.99888 8.72634 8.60836C9.11687 8.21784 9.11687 7.58467 8.72634 7.19415L6.31039 4.7782L8.72634 2.36225Z"/>
</svg>
