<svg width="41" height="48" viewBox="0 0 41 48" fill="none" xmlns="http://www.w3.org/2000/svg">
<path d="M39.7226 38.54C38.315 37.9635 37.7128 37.1985 37.7711 36.0571C37.831 34.7247 37.0751 33.7488 36.7162 33.3632C36.933 32.5348 37.5668 29.6689 36.7168 27.1797C35.8034 24.5153 33.0146 20.4459 30.1371 16.4459C28.9592 14.8031 28.9035 13.0175 28.8391 10.9499C28.7774 8.97779 28.7078 6.74239 27.6081 4.25739C26.4123 1.55159 24.0129 0 21.0248 0C19.2472 0 17.4226 0.555545 16.0184 1.52405C13.1431 3.50843 13.5232 7.83491 13.7747 10.6978C13.8092 11.0898 13.8416 11.4601 13.8605 11.7763C14.0279 14.5801 13.8756 16.0579 13.6763 16.5071C13.5474 16.8006 12.9129 17.6359 12.2414 18.5204C11.5469 19.4351 10.7595 20.4719 10.1141 21.438C9.34403 22.6006 8.72239 24.3776 8.1212 26.096C7.68133 27.3534 7.26585 28.5411 6.86139 29.2509C6.0948 30.6163 6.28555 31.8895 6.44481 32.478C6.15461 32.6796 5.73535 33.0765 5.38141 33.8246C4.95366 34.7374 4.08572 35.228 2.2809 35.575C1.45152 35.7447 0.879609 36.0934 0.580591 36.6115C0.145441 37.3655 0.382452 38.3129 0.59869 38.9604C0.918167 39.9122 0.719084 40.5146 0.357114 41.6084C0.273704 41.8608 0.17912 42.1466 0.0832764 42.4619C-0.0676491 42.9593 -0.0131962 43.4116 0.244746 43.8062C0.926351 44.8482 2.91529 45.2157 4.96278 45.4574C6.1853 45.6025 7.52332 46.0915 8.81744 46.5646C10.0854 47.0279 11.3966 47.5071 12.5884 47.6525C12.7695 47.6753 12.9489 47.6868 13.1219 47.6868C14.9214 47.6868 15.7344 46.4928 15.9922 46.0022C16.6385 45.8704 18.8678 45.448 21.1653 45.3913C23.4593 45.3258 25.6788 45.7788 26.3075 45.9196C26.5052 46.298 27.0262 47.1621 27.8569 47.6073C28.3134 47.8569 28.9488 48 29.5995 48C29.5997 48 29.5995 48 29.5997 48C30.2947 48 31.6168 47.8357 32.6632 46.7348C33.7069 45.6288 36.3147 44.2168 38.219 43.1858C38.6439 42.9557 39.0414 42.7404 39.39 42.5461C40.4597 41.9531 41.0434 41.1057 40.9914 40.2214C40.9479 39.4869 40.4618 38.8426 39.7226 38.54ZM16.0419 38.3271C15.9087 37.3891 14.7021 36.4588 13.3048 35.3817C12.1622 34.5009 10.8671 33.5026 10.5104 32.6572C9.77304 30.9131 10.3542 27.8465 11.3676 26.2673C11.8684 25.4767 12.2774 24.2776 12.673 23.1181C13.1002 21.866 13.5419 20.5714 14.0359 20.0046C14.8183 19.1199 15.5413 17.3983 15.6694 16.0415C16.402 16.7409 17.5384 17.6284 18.5883 17.6284C18.7499 17.6284 18.9068 17.6073 19.0568 17.565C19.775 17.3575 20.8315 16.7471 21.8532 16.1569C22.7341 15.6479 23.8203 15.0203 24.229 14.9632C24.9298 15.9695 29.002 24.9811 29.4181 27.8751C29.7473 30.165 29.3995 32.0579 29.2247 32.7993C29.084 32.7801 28.9162 32.7645 28.7399 32.7645C27.6057 32.7645 27.3054 33.3837 27.2272 33.7534C27.0261 34.7138 27.0048 37.7851 27.0026 38.4752C26.5925 38.9962 24.5184 41.4501 21.5407 41.8912C20.3278 42.0675 19.1951 42.1569 18.1744 42.1569C17.3019 42.1569 16.7451 42.0895 16.5139 42.0544L15.0175 40.3423C15.6075 40.051 16.1974 39.4363 16.0419 38.3271ZM17.9407 10.0956C17.8939 10.1158 17.848 10.1374 17.8028 10.1603C17.7982 10.059 17.7877 9.95621 17.7715 9.85313C17.6081 8.91279 16.9846 8.23024 16.2891 8.23024C16.2377 8.23024 16.1859 8.23418 16.1291 8.24284C15.7153 8.31177 15.3908 8.62259 15.213 9.06325C15.3689 8.09632 15.9168 7.3804 16.5667 7.3804C17.33 7.3804 17.9748 8.40903 17.9748 9.6265C17.9748 9.77995 17.9636 9.9326 17.9407 10.0956ZM23.8716 10.8207C23.9415 10.5982 23.9792 10.3574 23.9792 10.1075C23.9792 9.0036 23.2789 8.13881 22.3849 8.13881C21.5111 8.13881 20.8002 9.02186 20.8002 10.1075C20.8002 10.1814 20.8038 10.2555 20.8108 10.3295C20.7645 10.3117 20.7193 10.2944 20.6753 10.2777C20.5747 9.97321 20.5239 9.65546 20.5239 9.3311C20.5239 8.01117 21.3674 6.93723 22.4045 6.93723C23.4415 6.93723 24.2852 8.01117 24.2852 9.3311C24.2852 9.8802 24.1336 10.4043 23.8716 10.8207ZM23.1069 13.3897C23.0919 13.4565 23.0602 13.486 22.7086 13.6689C22.5311 13.7613 22.3101 13.8763 22.0336 14.0447L21.8488 14.1566C21.1063 14.6067 19.3678 15.661 18.8958 15.7229C18.5752 15.766 18.3769 15.6417 17.9311 15.3387C17.8305 15.2702 17.7235 15.1975 17.6094 15.1243C16.8056 14.597 16.2887 14.0161 16.2303 13.789C16.4923 13.5865 17.1418 13.0795 17.4743 12.7794C18.1493 12.1518 18.8286 11.73 19.1647 11.73C19.1825 11.73 19.1986 11.7313 19.2153 11.7344C19.6103 11.8041 20.5846 12.193 21.2963 12.4769C21.6252 12.6082 21.9093 12.7215 22.1091 12.7933C22.7388 13.0095 23.0671 13.2862 23.1069 13.3897ZM28.7642 42.7203C29.1194 41.118 29.5286 38.9383 29.4623 37.6533C29.447 37.3614 29.4212 37.0437 29.3962 36.7365C29.3495 36.162 29.2801 35.3082 29.3517 35.055C29.3658 35.0484 29.3816 35.0428 29.399 35.0379C29.402 35.7725 29.5616 37.2379 30.7334 37.7489C31.0827 37.9012 31.4818 37.9783 31.9196 37.9783C33.0935 37.9783 34.3959 37.4025 34.9295 36.869C35.2436 36.5548 35.5078 36.1705 35.6929 35.8661C35.7333 35.9847 35.7582 36.1395 35.7451 36.3391C35.6754 37.4226 36.202 38.8601 37.2042 39.3898L37.3501 39.4665C37.707 39.6538 38.6551 40.1516 38.6703 40.3876C38.6702 40.3878 38.6623 40.4155 38.6094 40.4646C38.3719 40.6816 37.5361 41.1084 36.7278 41.5212C35.2939 42.2533 33.6687 43.0832 32.9388 43.8509C31.9111 44.9324 30.7487 45.6588 30.0468 45.6588C29.9623 45.6588 29.8853 45.6481 29.8169 45.6264C29.0545 45.3888 28.4271 44.2889 28.7642 42.7203ZM2.77932 38.6327C2.70158 38.2688 2.6402 37.9816 2.70614 37.7034C2.75398 37.4972 3.77175 37.2763 4.20642 37.182C4.81752 37.0493 5.44955 36.9122 5.86283 36.6614C6.42168 36.3229 6.72432 35.6985 6.99123 35.1477C7.18449 34.7494 7.38405 34.3375 7.62153 34.2024C7.63491 34.1945 7.65537 34.1854 7.6944 34.1854C8.1393 34.1854 9.07287 35.1207 9.61079 35.9577C9.74723 36.1688 9.99998 36.5917 10.2924 37.0813C11.1669 38.5446 12.3644 40.5488 12.9899 41.2205C13.5534 41.8243 14.4657 42.9853 14.2413 43.981C14.077 44.7536 13.2023 45.3819 12.996 45.5208C12.9211 45.5378 12.8284 45.5465 12.7193 45.5465C11.5223 45.5465 9.15282 44.5506 7.87979 44.0155L7.6914 43.9363C6.98053 43.6383 5.82002 43.4505 4.69776 43.2689C3.8048 43.1243 2.58197 42.9264 2.37927 42.7477C2.21496 42.5634 2.40555 41.9642 2.57363 41.4356C2.69465 41.0557 2.81961 40.6629 2.88807 40.2517C2.98517 39.5957 2.87091 39.0617 2.77932 38.6327Z" fill="#5470CB"/>
</svg>
