<svg width="40" height="48" viewBox="0 0 40 48" fill="none" xmlns="http://www.w3.org/2000/svg">
<path d="M32.6421 25.5027C32.5795 19.4201 37.6015 16.5092 37.824 16.3631C35.0036 12.2419 30.6146 11.675 29.0461 11.6124C25.3144 11.2299 21.7566 13.8104 19.8578 13.8104C17.9658 13.8104 15.0375 11.6646 11.9388 11.7202C7.86286 11.7828 4.11032 14.0921 2.00973 17.7368C-2.22274 25.0819 0.92466 35.9605 5.04932 41.9249C7.06644 44.8393 9.47308 48.1119 12.6274 47.9971C15.667 47.8754 16.8147 46.0287 20.4907 46.0287C24.1668 46.0287 25.1997 47.9971 28.4131 47.938C31.6857 47.8754 33.755 44.9645 35.7548 42.0431C38.071 38.6592 39.0239 35.3797 39.083 35.2162C39.0065 35.1745 32.7082 32.7644 32.6421 25.5027Z" fill="#5470CB"/>
<path d="M26.5977 7.66506C28.2705 5.6375 29.4043 2.81353 29.0948 0C26.6777 0.0973782 23.7598 1.60326 22.0244 3.63429C20.4698 5.43231 19.117 8.30149 19.4787 11.0594C22.1705 11.2715 24.9249 9.68913 26.5977 7.66506Z" fill="#5470CB"/>
</svg>
