<svg width="11" height="11" viewBox="0 0 11 11" fill="none" xmlns="http://www.w3.org/2000/svg">
<g clip-path="url(#clip0)">
<path d="M1.25153 5.88515C1.18436 5.30295 1.24034 4.74089 1.39261 4.22139C1.89868 2.49493 3.4863 1.22527 5.36951 1.20288V0.0742979C5.36951 0.0115989 5.44789 -0.0219898 5.49939 0.0160774L7.82149 1.72239C7.85956 1.7515 7.85956 1.80972 7.82149 1.83659L5.50163 3.5429C5.44789 3.58096 5.37175 3.54737 5.37175 3.48467V2.35833C4.13345 2.37849 3.07652 3.14207 2.62195 4.22139C2.44953 4.62893 2.3622 5.07902 2.38683 5.5515C2.42042 6.20088 2.6645 6.79876 3.04965 7.28244C3.25566 7.53996 3.2064 7.91615 2.93993 8.11096C2.68689 8.29682 2.33309 8.24532 2.13828 7.999C1.66132 7.40336 1.34334 6.67784 1.25153 5.88515ZM7.95585 3.71756C8.34324 4.199 8.58731 4.79911 8.61866 5.4485C8.6433 5.92322 8.55373 6.37331 8.38354 6.77861C7.92898 7.85793 6.87205 8.62375 5.63374 8.64167V7.51532C5.63374 7.45262 5.55537 7.41904 5.50387 7.4571L3.18177 9.16341C3.1437 9.19252 3.1437 9.25074 3.18177 9.27761L5.50163 10.9839C5.55537 11.022 5.63151 10.9884 5.63151 10.9257V9.79712C7.51471 9.77697 9.10458 8.50731 9.60841 6.77861C9.76068 6.2591 9.81442 5.69705 9.74949 5.11485C9.65991 4.32215 9.34194 3.59664 8.86498 3.001C8.66793 2.75468 8.31636 2.70318 8.06333 2.88903C7.7991 3.08385 7.74984 3.46004 7.95585 3.71756Z" fill="#5470CB"/>
</g>
<defs>
<clipPath id="clip0">
<rect width="11" height="11" fill="white"/>
</clipPath>
</defs>
</svg>
