<svg width="150" height="42" viewBox="0 0 150 42" fill="none" xmlns="http://www.w3.org/2000/svg">
<path fill-rule="evenodd" clip-rule="evenodd" d="M138.085 23.9989H128.572C127.114 23.9989 126 22.885 126 21.4274V11.9136C126 5.3139 131.314 0 137.829 0C144.799 0 150.031 5.17664 150 12.0854C149.97 18.685 144.685 23.9989 138.085 23.9989ZM143.485 13.542L138.342 13.0284C137.914 13.0284 137.571 12.6848 137.485 12.2562L136.714 6.59966C136.714 6.34288 136.457 6.17107 136.285 6.17107C136.114 6.17107 135.857 6.25698 135.857 6.51376L134.314 15.2563C134.228 15.5141 134.486 15.7708 134.828 15.7708L143.571 14.3992C143.828 14.3142 144 14.1424 143.914 13.9706C143.828 13.7997 143.743 13.542 143.485 13.542V13.542Z" fill="url(#paint0_linear)"/>
<path fill-rule="evenodd" clip-rule="evenodd" d="M112.393 24.8995C108.284 24.8995 102.344 28.6836 107.69 34.4759C108.204 35.075 108.46 35.5872 108.46 36.1005C108.46 36.7842 108.032 37.2976 107.092 37.5537C106.323 37.7252 104.698 38.067 104.698 38.1528C104.698 38.4089 107.007 42 107.263 42C108.204 42 109.23 41.7439 110.426 41.2306C111.453 40.803 117.801 37.7455 112.137 32.0818C111.623 31.4838 111.367 31.0562 111.367 30.6286C111.367 28.8505 113.842 28.6249 114.631 28.8878C115.589 27.931 112.564 24.8995 112.393 24.8995V24.8995ZM102.603 26.9574C102.667 26.5016 98.1139 25.925 97.772 25.925C97.6016 25.925 97.0883 27.4651 97.0025 27.4651C97.0025 27.4651 96.1 25.6689 92.9838 25.6689C82.7102 25.6689 83.1457 41.8285 92.3859 41.8285C94.8792 41.8285 96.5671 39.7774 96.5749 39.7774C96.6607 39.7774 97.0025 41.6581 97.2598 41.6581C98.969 41.6581 100.841 41.4246 102.209 41.3389C102.551 41.3389 101.397 35.4563 102.603 26.9574ZM5.85775 41.402H0.556215C0.300108 41.402 0.103799 41.3343 0.106055 41.164C0.127491 39.8191 0.522368 20.8334 0 19.2166C0 19.2166 5.34441 19 5.94236 19C6.11385 19 6.28534 19.2561 6.4557 19.6837L11.0735 29.8592C11.4154 30.5429 11.6715 30.8847 11.9276 30.8847C12.0133 30.8847 12.2706 30.5429 12.7828 29.6877C13.8095 27.4651 15.4183 24.1221 17.4706 19.6769C17.6421 19.2493 17.9162 19.0023 18.0685 19.0778C18.284 19.1839 22.9109 19.2042 23.2144 19.0857C23.5325 18.9605 23.8123 19.185 23.7277 19.4276C23.2437 20.8085 23.4299 39.9229 23.8135 40.8887C23.9387 41.2069 23.7277 41.402 23.3859 41.402H17.7425C17.4852 41.402 17.3126 41.2306 17.3149 40.8887C17.3262 38.6086 17.7267 30.8001 17.3149 30.799C17.2291 30.799 13.638 39.4355 12.8685 41.3163C12.3033 42.1636 10.902 41.5724 10.8163 41.402C10.303 40.2896 7.00064 32.1528 6.36996 31.1939C6.14206 30.8475 6.15898 31.2559 6.15898 31.4274C6.15898 32.5387 6.28534 39.862 6.28534 40.8887C6.28534 41.2306 6.11385 41.402 5.85775 41.402V41.402ZM83.1513 36.4424C83.3228 36.4435 82.981 40.205 82.8952 40.2896C82.8095 40.3754 81.1476 41.7439 77.8498 41.7439C74.772 41.7439 73.2331 40.5468 73.2331 38.2374C73.2331 37.5537 73.4046 32.5951 73.4046 31.9103C73.4046 30.6162 71.6942 31.6925 71.6942 30.799V27.2078C71.6942 26.7453 73.3189 27.1086 73.3189 26.5241C73.4046 26.1823 73.4046 20.795 73.6607 20.795C73.9168 20.795 79.0468 21.6502 79.0468 21.8217C79.0468 22.1635 78.8765 25.2413 78.8765 25.6689C78.8765 26.1823 78.9622 26.4384 79.3041 26.4384C79.7317 26.4384 82.6978 26.1191 83.0058 26.268C83.2721 26.3955 83.2044 30.764 82.8603 31.3123H79.2183C79.0468 31.3123 78.9622 31.5684 78.9622 31.996C78.9622 31.996 79.1326 35.7587 79.3041 36.1005C80.271 37.3088 82.9798 36.4424 83.1513 36.4424ZM34.0735 25.4986C36.4676 25.4986 38.4341 26.268 39.8873 27.8069C44.0775 31.9972 41.2987 38.0264 39.8873 39.5202C38.4341 40.9744 36.4676 41.7439 34.0735 41.7439C31.7652 41.7439 29.8833 40.9744 28.3444 39.5202C25.1527 36.14 25.6649 30.5542 28.2587 27.8069C29.7129 26.268 31.5937 25.4986 34.0735 25.4986V25.4986ZM69.2098 26.3526C68.8883 26.5185 68.6401 40.4656 68.9583 41.1448C69.0666 41.3772 68.7868 41.5724 68.5307 41.5724C68.1888 41.6581 63.9986 41.6581 63.6567 41.5724C63.4006 41.5724 63.1129 41.4336 63.2291 41.402C63.4706 41.3355 63.4819 26.8141 63.0588 26.6956C62.8117 26.6257 63.2291 26.3526 63.4864 26.3526C63.8282 26.3526 69.5145 26.1981 69.2098 26.3526V26.3526ZM59.981 40.9744C59.981 40.2896 60.0656 29.7734 60.0656 29.7734C60.0656 28.4906 59.5522 27.4651 58.5267 26.6956C57.5857 26.0965 56.4744 25.7547 55.1917 25.7547C52.1736 25.7547 50.3053 27.8193 50.1722 27.9333C50.1372 27.9637 50.1169 27.9671 50.1022 27.9457C50.0323 27.8442 49.9612 27.5 49.8913 26.866C49.8055 26.1823 49.7198 25.7547 49.6351 25.7547C49.4749 25.9025 44.8627 26.7441 44.1621 26.6099C43.9748 26.5738 43.906 27.1232 43.906 27.2078C44.3336 28.7467 44.504 30.799 44.504 33.4503V40.9744C44.504 41.2306 44.6755 41.4867 45.0173 41.4867C45.3592 41.5724 49.2922 41.5724 49.7198 41.4867C50.0616 41.4867 50.2331 41.2306 50.2331 40.8887V32.3379C50.2331 31.9103 51.2587 30.6286 52.5415 30.6286C53.8242 30.6286 54.4222 31.3123 54.4222 32.7655C54.4222 32.7655 54.2518 40.3754 54.2518 40.803C54.2518 41.1448 54.4222 41.402 54.7652 41.4867C55.107 41.5724 59.2961 41.5724 59.5522 41.4867C59.8095 41.4867 59.981 41.3163 59.981 40.9744V40.9744ZM121.969 41.402H117.866C117.608 41.402 117.352 41.2306 117.352 40.8887V21.9921C118.996 21.1775 120.734 20.804 122.568 20.8808V31.7399H123.081L125.817 27.2078C125.903 27.0375 126.074 26.9517 126.245 26.9517V26.866H131.118C131.545 26.866 131.803 27.3793 131.545 27.7212L127.1 34.134L131.545 40.5468C131.803 40.8887 131.545 41.402 131.118 41.402H126.159C125.988 41.402 125.817 41.3163 125.732 41.1448L122.996 36.6139H122.482V40.8887C122.482 41.1448 122.312 41.402 121.969 41.402V41.402ZM36.3446 35.7767C35.8313 36.4604 35.0133 36.87 34.1581 36.87C33.3041 36.87 32.6192 36.5281 32.107 35.8444C30.8017 34.3213 31.4278 32.3029 32.107 31.3981C32.6192 30.7144 33.3041 30.3714 34.1581 30.3714C35.0133 30.3714 35.7918 30.7279 36.304 31.3259C36.9889 32.1246 37.4695 33.9772 36.3446 35.7767V35.7767ZM95.8912 35.8444C95.2933 36.4424 93.2365 37.4634 91.5307 35.7587C90.9327 35.1596 90.0583 32.7847 91.5307 31.3123C92.1286 30.7144 94.2102 29.5455 95.977 31.3123C97.7438 33.0791 96.4892 35.2453 95.8912 35.8444V35.8444ZM68.4235 20.3685C70.1102 21.8138 69.6171 25.1556 66.2866 25.1556C63.6488 25.1556 61.7884 22.1387 64.1486 20.3685C64.7466 19.8552 66.7368 18.9222 68.4235 20.3685Z" fill="#5A3278"/>
<defs>
<linearGradient id="paint0_linear" x1="146.5" y1="4.71825e-08" x2="126" y2="24" gradientUnits="userSpaceOnUse">
<stop stop-color="#74439A"/>
<stop offset="1" stop-color="#5C337B"/>
</linearGradient>
</defs>
</svg>
